<svg width="151" height="105" viewBox="0 0 151 105" fill="none" xmlns="http://www.w3.org/2000/svg">
<rect width="1280" height="832" transform="translate(-520 -461)" fill="white"/>
<path d="M31 8L11 29V94.5L51.75 51.25L92.5 8H31Z" fill="#15846A"/>
<path d="M51.75 51.25L11 94.5H92.5L51.75 51.25Z" fill="#022415"/>
<path d="M71.2822 47.12C70.8502 46.288 70.2502 45.664 69.4822 45.248C68.7142 44.816 67.8262 44.6 66.8182 44.6C65.7142 44.6 64.7302 44.848 63.8662 45.344C63.0022 45.84 62.3222 46.544 61.8262 47.456C61.3462 48.368 61.1062 49.424 61.1062 50.624C61.1062 51.824 61.3462 52.888 61.8262 53.816C62.3222 54.728 63.0022 55.432 63.8662 55.928C64.7302 56.424 65.7142 56.672 66.8182 56.672C68.3062 56.672 69.5142 56.256 70.4422 55.424C71.3702 54.592 71.9382 53.464 72.1462 52.04H65.8822V49.856H75.0742V51.992C74.8982 53.288 74.4342 54.48 73.6822 55.568C72.9462 56.656 71.9782 57.528 70.7782 58.184C69.5942 58.824 68.2742 59.144 66.8182 59.144C65.2502 59.144 63.8182 58.784 62.5222 58.064C61.2262 57.328 60.1942 56.312 59.4262 55.016C58.6742 53.72 58.2982 52.256 58.2982 50.624C58.2982 48.992 58.6742 47.528 59.4262 46.232C60.1942 44.936 61.2262 43.928 62.5222 43.208C63.8342 42.472 65.2662 42.104 66.8182 42.104C68.5942 42.104 70.1702 42.544 71.5462 43.424C72.9382 44.288 73.9462 45.52 74.5702 47.12H71.2822ZM80.5087 47.696C80.9087 47.024 81.4367 46.504 82.0927 46.136C82.7647 45.752 83.5567 45.56 84.4687 45.56V48.392H83.7727C82.7007 48.392 81.8847 48.664 81.3247 49.208C80.7807 49.752 80.5087 50.696 80.5087 52.04V59H77.7727V45.776H80.5087V47.696ZM86.0716 52.328C86.0716 51 86.3436 49.824 86.8876 48.8C87.4476 47.776 88.1996 46.984 89.1436 46.424C90.1036 45.848 91.1596 45.56 92.3116 45.56C93.3516 45.56 94.2556 45.768 95.0236 46.184C95.8076 46.584 96.4316 47.088 96.8956 47.696V45.776H99.6556V59H96.8956V57.032C96.4316 57.656 95.7996 58.176 94.9996 58.592C94.1996 59.008 93.2876 59.216 92.2636 59.216C91.1276 59.216 90.0876 58.928 89.1436 58.352C88.1996 57.76 87.4476 56.944 86.8876 55.904C86.3436 54.848 86.0716 53.656 86.0716 52.328ZM96.8956 52.376C96.8956 51.464 96.7036 50.672 96.3196 50C95.9516 49.328 95.4636 48.816 94.8556 48.464C94.2476 48.112 93.5916 47.936 92.8876 47.936C92.1836 47.936 91.5276 48.112 90.9196 48.464C90.3116 48.8 89.8156 49.304 89.4316 49.976C89.0636 50.632 88.8796 51.416 88.8796 52.328C88.8796 53.24 89.0636 54.04 89.4316 54.728C89.8156 55.416 90.3116 55.944 90.9196 56.312C91.5436 56.664 92.1996 56.84 92.8876 56.84C93.5916 56.84 94.2476 56.664 94.8556 56.312C95.4636 55.96 95.9516 55.448 96.3196 54.776C96.7036 54.088 96.8956 53.288 96.8956 52.376ZM105.985 47.744C106.449 47.104 107.081 46.584 107.881 46.184C108.697 45.768 109.601 45.56 110.593 45.56C111.761 45.56 112.817 45.84 113.761 46.4C114.705 46.96 115.449 47.76 115.993 48.8C116.537 49.824 116.809 51 116.809 52.328C116.809 53.656 116.537 54.848 115.993 55.904C115.449 56.944 114.697 57.76 113.737 58.352C112.793 58.928 111.745 59.216 110.593 59.216C109.569 59.216 108.657 59.016 107.857 58.616C107.073 58.216 106.449 57.704 105.985 57.08V59H103.249V41.24H105.985V47.744ZM114.025 52.328C114.025 51.416 113.833 50.632 113.449 49.976C113.081 49.304 112.585 48.8 111.961 48.464C111.353 48.112 110.697 47.936 109.993 47.936C109.305 47.936 108.649 48.112 108.025 48.464C107.417 48.816 106.921 49.328 106.537 50C106.169 50.672 105.985 51.464 105.985 52.376C105.985 53.288 106.169 54.088 106.537 54.776C106.921 55.448 107.417 55.96 108.025 56.312C108.649 56.664 109.305 56.84 109.993 56.84C110.697 56.84 111.353 56.664 111.961 56.312C112.585 55.944 113.081 55.416 113.449 54.728C113.833 54.04 114.025 53.24 114.025 52.328Z" fill="black"/>
<path d="M122.251 42.32V59H119.515V42.32H122.251ZM136.619 42.32V44.552H132.179V59H129.443V44.552H124.979V42.32H136.619Z" fill="#15846A"/>
</svg>
